<svg xmlns="http://www.w3.org/2000/svg" width="66" height="60"><path data-name="Forma 1" d="M0 36.77v-9.05a1.507 1.507 0 0 1 1.5-1.51h15.83l-6.89 12.06H1.5a1.5 1.5 0 0 1-1.5-1.5zm11.27 18.52l-5.05 3.46c-.68.47-1.16.17-1.06-.65l.67-5.92a.917.917 0 0 1 1.47-.75l3.91 2.26a.875.875 0 0 1 .06 1.6zm1.22-3.33L8.58 49.7a1.5 1.5 0 0 1-.55-2.05l18.1-31.7a1.5 1.5 0 0 1 2.05-.56l3.91 2.25a1.536 1.536 0 0 1 .55 2.07L14.54 51.4a1.507 1.507 0 0 1-2.05.56zm13.77-13.69l6.89-12.06h3.97l5.59 12.06H26.26zm22.44 3.6c-1.56-.79-9.35-18.87-11.35-23.59S29.31 1 31.27.02c1.39-.7 6.37 9.19 10.11 15.13s11.54 21.25 12.5 22.99-.92 3.21-1.97 3.65-1.64.87-3.21.08zm5.12 8.32l-2.35-3.75a1.489 1.489 0 0 1 .56-2.15l2.24-1.16a1.657 1.657 0 0 1 2.2.74l1.86 3.59a1.793 1.793 0 0 1-.63 2.32l-1.6.96a1.683 1.683 0 0 1-2.28-.55zM62.49 60c-.49-1.59-4.25-1.69-5.93-4.08s-.29-3.6.29-4.17c6.82-3.86 5.64 8.25 5.64 8.25zM66 36.77a1.5 1.5 0 0 1-1.5 1.5h-7.92a4.581 4.581 0 0 0-.47-1.36c-.21-.37-.73-1.37-1.45-2.77-1.05-2.02-2.56-4.9-4.17-7.93H64.5a1.507 1.507 0 0 1 1.5 1.51v9.05z" fill="#fff" fill-rule="evenodd"/></svg>