<svg xmlns="http://www.w3.org/2000/svg" width="54" height="58"><path data-name="Forma 1" d="M50.382 22.95L10.774.94a7.28 7.28 0 0 0-7.343.11A6.881 6.881 0 0 0 0 6.99v44.02a6.89 6.89 0 0 0 3.434 5.95 7.31 7.31 0 0 0 7.344.1l39.608-22.01a6.869 6.869 0 0 0-.004-12.1zm-1.742 8.93L9.035 53.89a3.743 3.743 0 0 1-3.772-.06A3.221 3.221 0 0 1 3.6 51.01V6.99a3.24 3.24 0 0 1 1.656-2.82 3.753 3.753 0 0 1 3.776-.06l39.611 22.02a3.232 3.232 0 0 1-.003 5.75zm-6.365 4.96L4.694 1.94a1.8 1.8 0 0 0-2.545.1 1.82 1.82 0 0 0 .1 2.56L39.83 39.5a1.8 1.8 0 0 0 1.221.48 1.777 1.777 0 0 0 1.324-.58 1.817 1.817 0 0 0-.1-2.56zm-2-19.41a1.8 1.8 0 0 0-2.545 0L2.093 53.31a1.81 1.81 0 0 0 1.274 3.09 1.8 1.8 0 0 0 1.271-.53l35.637-35.88a1.819 1.819 0 0 0-.005-2.56z" fill="#fff" fill-rule="evenodd"/></svg>