<svg xmlns="http://www.w3.org/2000/svg" width="66" height="60" viewBox="0 0 66 60">
  <metadata><?xpacket begin="﻿" id="W5M0MpCehiHzreSzNTczkc9d"?>
<x:xmpmeta xmlns:x="adobe:ns:meta/" x:xmptk="Adobe XMP Core 5.6-c138 79.159824, 2016/09/14-01:09:01        ">
   <rdf:RDF xmlns:rdf="http://www.w3.org/1999/02/22-rdf-syntax-ns#">
      <rdf:Description rdf:about=""/>
   </rdf:RDF>
</x:xmpmeta>
                                                                                                    
                                                                                                    
                                                                                                    
                                                                                                    
                                                                                                    
                                                                                                    
                                                                                                    
                                                                                                    
                                                                                                    
                                                                                                    
                                                                                                    
                                                                                                    
                                                                                                    
                                                                                                    
                                                                                                    
                                                                                                    
                                                                                                    
                                                                                                    
                                                                                                    
                                                                                                    
                           
<?xpacket end="w"?></metadata>
<defs>
    <style>
      .cls-1 {
        fill: #fff;
        fill-rule: evenodd;
      }
    </style>
  </defs>
  <path id="Forma_1" data-name="Forma 1" class="cls-1" d="M1005,3361.77v-9.05a1.507,1.507,0,0,1,1.5-1.51h15.83l-6.89,12.06h-8.94A1.5,1.5,0,0,1,1005,3361.77Zm11.27,18.52-5.05,3.46c-0.68.47-1.16,0.17-1.06-.65l0.67-5.92a0.917,0.917,0,0,1,1.47-.75l3.91,2.26A0.875,0.875,0,0,1,1016.27,3380.29Zm1.22-3.33-3.91-2.26a1.5,1.5,0,0,1-.55-2.05l18.1-31.7a1.5,1.5,0,0,1,2.05-.56l3.91,2.25a1.536,1.536,0,0,1,.55,2.07l-18.1,31.69A1.507,1.507,0,0,1,1017.49,3376.96Zm13.77-13.69,6.89-12.06h3.97l5.59,12.06h-16.45Zm22.44,3.6c-1.56-.79-9.35-18.87-11.35-23.59s-8.04-17.28-6.08-18.26c1.39-.7,6.37,9.19,10.11,15.13s11.54,21.25,12.5,22.99-0.92,3.21-1.97,3.65S1055.27,3367.66,1053.7,3366.87Zm5.12,8.32-2.35-3.75a1.489,1.489,0,0,1,.56-2.15l2.24-1.16a1.657,1.657,0,0,1,2.2.74l1.86,3.59a1.793,1.793,0,0,1-.63,2.32l-1.6.96A1.683,1.683,0,0,1,1058.82,3375.19Zm8.67,9.81c-0.49-1.59-4.25-1.69-5.93-4.08s-0.29-3.6.29-4.17C1068.67,3372.89,1067.49,3385,1067.49,3385Zm3.51-23.23a1.5,1.5,0,0,1-1.5,1.5h-7.92a4.581,4.581,0,0,0-.47-1.36c-0.21-.37-0.73-1.37-1.45-2.77-1.05-2.02-2.56-4.9-4.17-7.93h14.01a1.507,1.507,0,0,1,1.5,1.51v9.05h0Z" transform="translate(-1005 -3325)"/>
</svg>
