<svg xmlns="http://www.w3.org/2000/svg" width="54" height="58" viewBox="0 0 54 58">
  <metadata><?xpacket begin="﻿" id="W5M0MpCehiHzreSzNTczkc9d"?>
<x:xmpmeta xmlns:x="adobe:ns:meta/" x:xmptk="Adobe XMP Core 5.6-c138 79.159824, 2016/09/14-01:09:01        ">
   <rdf:RDF xmlns:rdf="http://www.w3.org/1999/02/22-rdf-syntax-ns#">
      <rdf:Description rdf:about=""/>
   </rdf:RDF>
</x:xmpmeta>
                                                                                                    
                                                                                                    
                                                                                                    
                                                                                                    
                                                                                                    
                                                                                                    
                                                                                                    
                                                                                                    
                                                                                                    
                                                                                                    
                                                                                                    
                                                                                                    
                                                                                                    
                                                                                                    
                                                                                                    
                                                                                                    
                                                                                                    
                                                                                                    
                                                                                                    
                                                                                                    
                           
<?xpacket end="w"?></metadata>
<defs>
    <style>
      .cls-1 {
        fill: #fff;
        fill-rule: evenodd;
      }
    </style>
  </defs>
  <path id="Forma_1" data-name="Forma 1" class="cls-1" d="M661.382,3347.95l-39.608-22.01a7.28,7.28,0,0,0-7.343.11,6.881,6.881,0,0,0-3.431,5.94v44.02a6.89,6.89,0,0,0,3.434,5.95,7.31,7.31,0,0,0,7.344.1l39.608-22.01A6.869,6.869,0,0,0,661.382,3347.95Zm-1.742,8.93-39.605,22.01a3.743,3.743,0,0,1-3.772-.06,3.221,3.221,0,0,1-1.663-2.82v-44.02a3.24,3.24,0,0,1,1.656-2.82,3.753,3.753,0,0,1,3.776-.06l39.611,22.02A3.232,3.232,0,0,1,659.64,3356.88Zm-6.365,4.96-37.581-34.9a1.8,1.8,0,0,0-2.545.1,1.82,1.82,0,0,0,.1,2.56l37.581,34.9a1.8,1.8,0,0,0,1.221.48,1.777,1.777,0,0,0,1.324-.58A1.817,1.817,0,0,0,653.275,3361.84Zm-2-19.41a1.8,1.8,0,0,0-2.545,0l-35.637,35.88a1.81,1.81,0,0,0,1.274,3.09,1.8,1.8,0,0,0,1.271-.53l35.637-35.88A1.819,1.819,0,0,0,651.27,3342.43Z" transform="translate(-611 -3325)"/>
</svg>
